<svg width="39" height="38" viewBox="0 0 39 38" fill="none" xmlns="http://www.w3.org/2000/svg">
    <path
        d="M39 22.2796V10.0681C39 8.38077 38.2699 6.84946 37.1063 6.06917L28.7328 0.499872C27.7213 -0.163373 26.5197 -0.163373 25.5158 0.499872L19.5 4.45983L13.4842 0.490118C12.4803 -0.163373 11.2787 -0.163373 10.2672 0.490118L1.89372 6.06917C0.730109 6.84946 0 8.38077 0 10.0681V23.138C0 24.8448 0.737715 26.3859 1.92414 27.1564L17.9181 37.5148C18.4124 37.8366 18.9524 38.0024 19.5 38.0024C20.0476 38.0024 20.5876 37.8366 21.0819 37.5148L36.8173 27.3223L35.494 24.64L20.7397 34.1985V21.7822L36.5359 10.9265V22.2796H39ZM16.4503 6.19597C16.4731 6.43006 16.4351 6.66414 16.3438 6.88848C16.1004 7.48344 15.53 7.71753 15.0661 7.39566L12.1305 5.40593C12.062 5.35716 11.9784 5.35716 11.9099 5.40593L8.3202 7.8931C8.1757 8.00039 8.0236 8.0394 7.87149 8.0394C7.52925 8.0394 7.20222 7.81507 7.0273 7.40542C7.00449 7.34689 6.98167 7.27862 6.97406 7.2201C6.8752 6.87872 6.91322 6.50809 7.04251 6.20572C7.12617 6.02041 7.25546 5.86435 7.41517 5.7473L11.0277 3.24063C11.6741 2.83098 12.4043 2.83098 13.0127 3.25039L15.9559 5.24012C16.1917 5.40593 16.3514 5.67903 16.4199 5.98139C16.4351 6.04967 16.4503 6.1277 16.4503 6.19597ZM3.03452 24.3377C2.68467 24.1036 2.46412 23.6451 2.46412 23.138V10.9265L18.2755 21.8017V34.2083L3.03452 24.3377Z"
        fill="#1E1E1E" />
</svg>