<svg width="39" height="38" viewBox="0 0 39 38" fill="none" xmlns="http://www.w3.org/2000/svg">
    <path
        d="M39 22.2821V10.0706C39 8.38322 38.2699 6.8519 37.1063 6.07162L28.7328 0.502313C27.7213 -0.160931 26.5197 -0.160931 25.5158 0.502313L19.5 4.46227L13.4842 0.492559C12.4803 -0.160931 11.2787 -0.160931 10.2672 0.492559L1.89372 6.07162C0.730109 6.8519 0 8.38322 0 10.0706V23.1404C0 24.8473 0.737715 26.3884 1.92414 27.1589L17.9181 37.5172C18.4124 37.8391 18.9524 38.0049 19.5 38.0049C20.0476 38.0049 20.5876 37.8391 21.0819 37.5172L36.8173 27.3247L35.494 24.6425L20.7397 34.201V21.7847L36.5359 10.9289V22.2821H39ZM16.4503 6.19841C16.4731 6.4325 16.4351 6.66658 16.3438 6.89092C16.1004 7.48589 15.53 7.71997 15.0661 7.3981L12.1305 5.40837C12.062 5.3596 11.9784 5.3596 11.9099 5.40837L8.3202 7.89554C8.1757 8.00283 8.0236 8.04184 7.87149 8.04184C7.52925 8.04184 7.20222 7.81751 7.0273 7.40786C7.00449 7.34934 6.98167 7.28106 6.97406 7.22254C6.8752 6.88116 6.91322 6.51053 7.04251 6.20817C7.12617 6.02285 7.25546 5.86679 7.41517 5.74975L11.0277 3.24307C11.6741 2.83342 12.4043 2.83342 13.0127 3.25283L15.9559 5.24256C16.1917 5.40837 16.3514 5.68147 16.4199 5.98383C16.4351 6.05211 16.4503 6.13014 16.4503 6.19841ZM3.03452 24.3401C2.68467 24.106 2.46412 23.6476 2.46412 23.1404V10.9289L18.2755 21.8042V34.2107L3.03452 24.3401Z"
        fill="#ffffff" />
</svg>